<svg version="1" xmlns="http://www.w3.org/2000/svg" width="682.667" height="682.667" viewBox="0 0 512.000000 512.000000"><path d="M0 256v256h512V0H0v256zM290 66.3c28.8 6.9 49.5 18.1 67.2 36.6 20.4 21.1 32.4 48.5 36.7 83.1 1.6 12.3 1.3 35.6-.4 47.6-8.4 56.5-51.4 131.5-114.9 200.4-11 11.9-15.7 15-22.6 15-6.9 0-11.6-3.1-22.6-15-44.4-48.3-82.8-105.5-100.2-149.5-11.1-28-15.1-45.7-15.9-69.6-1.5-46.4 11-84.2 36.7-111.3 17-17.9 37.6-29.6 63.2-36.1 16-3.9 20.8-4.4 42.3-4 17.1.3 21.5.7 30.5 2.8z"/><path d="M246.5 108.6c-32.5 4.8-56.6 22-70 49.9-2.4 4.9-5.1 11.9-6 15.5-2.5 9.6-3.1 28.7-1.2 38.5 6.5 34.2 32.5 61.5 66.4 69.6 7.5 1.8 11 2 23.3 1.7 13.1-.4 15.5-.8 24.2-3.8 12.8-4.2 23.2-10.5 32.5-19.3 12.5-11.9 19.9-23.9 25-40.4 2.3-7.8 2.6-10.5 2.7-23.3 0-10.6-.5-16.4-1.7-21.5-2.5-9.9-10.4-25.7-17-34.2-11-13.9-29.7-25.9-47.2-30.3-7.8-2-24.9-3.3-31-2.4zm17.5 27.9v6.5h13.8l6.1 6.5c3.3 3.6 6.1 6.9 6.1 7.3 0 .4-2.4 3.1-5.3 6l-5.3 5.2-4.4-4.5c-3.5-3.5-5.1-4.5-7.7-4.5H264v26h11.7l7.1 7.4 7.2 7.4V228.5l-7.7 7.7c-7.7 7.8-7.8 7.8-13 7.8H264v13.1l-6.7-.3-6.8-.3-.3-6.3-.3-6.2h-15.7l-6.1-6.6c-3.4-3.7-6.1-7-6.1-7.3 0-.4 2.4-3 5.3-5.9l5.3-5.2 4.4 4.5c3.9 3.9 4.9 4.5 8.7 4.5h4.3v-27h-5.3c-5.3 0-5.4 0-12.5-7.4l-7.2-7.4v-27.4l7.1-7.9 7.1-7.9H250v-5.8c0-3.2.3-6.2.7-6.5.3-.4 3.5-.7 7-.7h6.3v6.5z"/><path d="M244.1 161.6c-1.7 2.2-2.1 4.1-2.1 10.9 0 7.2.3 8.4 2.3 10.3 1.3 1.2 3.1 2.2 4 2.2 1.5 0 1.7-1.5 1.7-13 0-12.2-.1-13-1.9-13-1.1 0-2.9 1.2-4 2.6zM264 214.5c0 12 .2 13.5 1.7 13.5.9 0 3-1.2 4.5-2.7 2.6-2.5 2.8-3.2 2.8-11.3 0-7.7-.2-8.9-2.3-10.8-1.3-1.2-3.3-2.2-4.5-2.2-2.2 0-2.2.3-2.2 13.5z"/></svg>